%FSLAX34Y34*%
%MOMM*%
%LNOUTLINE*%
G71*
G01*
%ADD10C, 0.800*%
%ADD11C, 0.010*%
%LPD*%
G36*
X2749812Y1815775D02*
X2761067Y1815775D01*
X2761067Y1776755D01*
X2749812Y1776755D01*
X2749812Y1815775D01*
G37*
G54D10*
X2749812Y1815775D02*
X2761067Y1815775D01*
X2761067Y1776755D01*
X2749812Y1776755D01*
X2749812Y1815775D01*
G36*
X2140400Y1520875D02*
X2151655Y1520875D01*
X2151655Y1481855D01*
X2140400Y1481855D01*
X2140400Y1520875D01*
G37*
G54D10*
X2140400Y1520875D02*
X2151655Y1520875D01*
X2151655Y1481855D01*
X2140400Y1481855D01*
X2140400Y1520875D01*
G36*
X2320950Y1959962D02*
X2320950Y1948708D01*
X2281930Y1948708D01*
X2281930Y1959963D01*
X2320950Y1959962D01*
G37*
G54D10*
X2320950Y1959962D02*
X2320950Y1948708D01*
X2281930Y1948708D01*
X2281930Y1959963D01*
X2320950Y1959962D01*
G36*
X2613475Y1354700D02*
X2613475Y1343445D01*
X2574455Y1343445D01*
X2574455Y1354700D01*
X2613475Y1354700D01*
G37*
G54D10*
X2613475Y1354700D02*
X2613475Y1343445D01*
X2574455Y1343445D01*
X2574455Y1354700D01*
X2613475Y1354700D01*
G36*
X2782336Y1945565D02*
X2793590Y1945565D01*
X2793590Y1912895D01*
X2782336Y1912895D01*
X2782336Y1945565D01*
G37*
G54D10*
X2782336Y1945565D02*
X2793590Y1945565D01*
X2793590Y1912895D01*
X2782336Y1912895D01*
X2782336Y1945565D01*
G36*
X3569736Y1943977D02*
X3580990Y1943977D01*
X3580990Y1911307D01*
X3569736Y1911307D01*
X3569736Y1943977D01*
G37*
G54D10*
X3569736Y1943977D02*
X3580990Y1943977D01*
X3580990Y1911307D01*
X3569736Y1911307D01*
X3569736Y1943977D01*
G54D11*
X33000Y1873300D02*
X8200Y1873300D01*
X8200Y200000D01*
X3888900Y197700D01*
X3895800Y197700D01*
X3895900Y1992700D01*
X3545100Y1992500D01*
X3541600Y1992500D01*
X3541500Y1711100D01*
X3504800Y1711100D01*
X3504800Y1807100D01*
X3498500Y1807100D01*
X2869900Y1808100D01*
X2866800Y1808100D01*
X2866800Y1713900D01*
X2865200Y1712300D01*
X2832000Y1712300D01*
X2830000Y1714300D01*
X2830000Y1990000D01*
X2825200Y1994800D01*
X1442800Y1994800D01*
X1439800Y1991800D01*
X1439800Y1875400D01*
X1438200Y1873800D01*
X1313000Y1873800D01*
X1313000Y1980100D01*
X1298800Y1994300D01*
X1239000Y1994300D01*
X1226200Y1981500D01*
X1226200Y1895500D01*
X1225500Y1894800D01*
X1213900Y1894800D01*
X1213200Y1895500D01*
X1213200Y1983800D01*
X1202500Y1994500D01*
X1058200Y1994500D01*
X1044200Y1980500D01*
X1044200Y1873800D01*
X712000Y1873800D01*
X712000Y1994500D01*
X667900Y1994500D01*
X660800Y1983500D01*
X660800Y1896800D01*
X658800Y1894800D01*
X650000Y1894800D01*
X648500Y1896300D01*
X648400Y1984000D01*
X638500Y1994300D01*
X312000Y1994400D01*
X303900Y1984200D01*
X303800Y1896400D01*
X302000Y1893800D01*
X293800Y1893800D01*
X292200Y1896900D01*
X292200Y1984100D01*
X284000Y1994300D01*
X200000Y1994300D01*
X200000Y1873300D01*
X33000Y1873300D01*
M02*
